<?xml version="1.0" encoding="iso-8859-1"?>
<!-- Generator: Adobe Illustrator 19.0.0, SVG Export Plug-In . SVG Version: 6.00 Build 0)  -->
<svg version="1.1" id="Capa_1" xmlns="http://www.w3.org/2000/svg" xmlns:xlink="http://www.w3.org/1999/xlink" x="0px" y="0px"
	 viewBox="0 0 512 512" style="enable-background:new 0 0 512 512;" xml:space="preserve">
<g>
	<circle style="fill:#91DC5A;" cx="387.418" cy="109.97" r="84.43"/>
	<path style="fill:#91DC5A;" d="M488.816,415.872h-209.63c-12.804,0-23.184-10.38-23.184-23.184V262.776
		c0-44.703,36.239-80.94,80.94-80.94h94.117c44.703,0,80.94,36.239,80.94,80.94v129.913C512,405.493,501.62,415.872,488.816,415.872
		z"/>
</g>
<g>
	<path style="fill:#7ED63E;" d="M413.079,190.431c-8.086,2.577-16.716,3.97-25.661,3.97c-46.63,0-84.419-37.8-84.419-84.43
		c0-46.619,37.79-84.419,84.419-84.419c8.945,0,17.575,1.393,25.661,3.97c-34.082,10.861-58.758,42.775-58.758,80.45
		C354.321,147.655,378.997,179.57,413.079,190.431z"/>
	<path style="fill:#7ED63E;" d="M307.325,262.779v129.908c0,12.81,10.38,23.189,23.189,23.189h-51.322
		c-12.81,0-23.189-10.38-23.189-23.189V262.779c0-44.703,36.24-80.942,80.942-80.942h51.322
		C343.564,181.837,307.325,218.076,307.325,262.779z"/>
</g>
<g>
	<circle style="fill:#FFDA44;" cx="131.426" cy="109.97" r="84.43"/>
	<path style="fill:#FFDA44;" d="M232.819,415.872H23.189c-12.804,0-23.184-10.38-23.184-23.184V262.776
		c0-44.703,36.239-80.94,80.94-80.94h94.117c44.703,0,80.94,36.239,80.94,80.94v129.913
		C256.003,405.493,245.623,415.872,232.819,415.872z"/>
</g>
<g>
	<circle style="fill:#FF7956;" cx="259.417" cy="180.564" r="84.43"/>
	<path style="fill:#FF7956;" d="M360.817,486.46h-209.63c-12.804,0-23.184-10.38-23.184-23.184V333.363
		c0-44.703,36.239-80.94,80.94-80.94h94.117c44.703,0,80.94,36.239,80.94,80.94v129.913
		C384.002,476.08,373.621,486.46,360.817,486.46z"/>
</g>
<g>
	<path style="fill:#FFD422;" d="M157.087,190.431c-8.096,2.577-16.716,3.97-25.661,3.97c-46.63,0-84.43-37.8-84.43-84.43
		c0-46.619,37.8-84.419,84.43-84.419c8.945,0,17.565,1.393,25.661,3.97c-34.082,10.861-58.769,42.775-58.769,80.45
		C98.318,147.655,123.005,179.57,157.087,190.431z"/>
	<path style="fill:#FFD422;" d="M51.322,262.779v129.908c0,12.81,10.38,23.189,23.189,23.189H23.189
		C10.38,415.875,0,405.496,0,392.686V262.779c0-44.703,36.24-80.942,80.942-80.942h51.322
		C87.562,181.837,51.322,218.076,51.322,262.779z"/>
</g>
<g>
	<path style="fill:#FF6243;" d="M285.078,261.015c-8.086,2.577-16.716,3.97-25.661,3.97c-46.619,0-84.42-37.8-84.42-84.419
		c0-46.63,37.8-84.43,84.42-84.43c8.945,0,17.575,1.393,25.661,3.97c-34.072,10.861-58.758,42.775-58.758,80.46
		C226.32,218.24,251.007,250.153,285.078,261.015z"/>
	<path style="fill:#FF6243;" d="M179.323,333.362V463.28c0,12.799,10.38,23.179,23.189,23.179H151.19
		c-12.81,0-23.189-10.38-23.189-23.179V333.362c0-44.703,36.24-80.942,80.942-80.942h51.322
		C215.563,252.42,179.323,288.66,179.323,333.362z"/>
</g>
<g>
</g>
<g>
</g>
<g>
</g>
<g>
</g>
<g>
</g>
<g>
</g>
<g>
</g>
<g>
</g>
<g>
</g>
<g>
</g>
<g>
</g>
<g>
</g>
<g>
</g>
<g>
</g>
<g>
</g>
</svg>
