<svg id="Layer_1" enable-background="new 0 0 128 128" height="512" viewBox="0 0 128 128" width="512" xmlns="http://www.w3.org/2000/svg"><g><path d="m118.484 12.165h-14.5c-2.757 0-5 2.243-5 5s2.243 5 5 5h1.816l-23.364 21.807-10.788-9.404c-1.881-1.639-4.625-1.655-6.527-.038l-18.017 15.337c-2.584-1.288-5.488-2.031-8.569-2.031-10.604 0-19.231 8.592-19.231 19.153 0 5.375 2.242 10.233 5.835 13.715h-.622c-8.822 0-16 7.178-16 16v20.132c0 1.654 1.346 3 3 3h104.967c1.654 0 3-1.346 3-3v-77.338c0-.396-.234-.756-.597-.915-.363-.161-.786-.09-1.079.178l-32.085 29.416-16.539-13.455c-.37-.303-.901-.299-1.269.006l-10.495 8.7c-.472-2.488-1.428-4.804-2.767-6.853l13.671-11.637 10.942 9.537c1.937 1.688 4.816 1.639 6.697-.114l27.521-25.688v2.646c0 2.757 2.243 5 5 5s5-2.243 5-5v-14.154c0-2.757-2.243-5-5-5z" fill="#e6e7e8"/><g><path d="m81.762 65.498-17.208-14-11.871 9.84c.049.545.084 1.094.084 1.651 0 6.063-2.996 11.417-7.583 14.714h3.37c8.284 0 15 6.716 15 15v20.132c0 1.104-.895 2-2 2h50.93c1.105 0 2-.896 2-2v-77.337z" fill="#6dc9f7"/><path d="m114.484 9.165h-14.5c-2.209 0-4 1.791-4 4s1.791 4 4 4h4.353l-25.878 24.154-11.468-9.997c-1.493-1.301-3.713-1.313-5.221-.03l-18.51 15.756c2.404 1.307 4.466 3.148 6.059 5.348l15.012-12.779 11.592 10.103c1.545 1.346 3.859 1.306 5.358-.092l29.203-27.259v4.947c0 2.209 1.791 4 4 4s4-1.791 4-4v-14.151c0-2.209-1.791-4-4-4z" fill="#fa759e"/><path d="m48.554 77.704h-3.37c-2.998 2.155-6.669 3.439-10.648 3.439-3.98 0-7.651-1.284-10.649-3.439h-3.37c-8.284 0-15 6.716-15 15v20.132c0 1.104.895 2 2 2h54.037c1.105 0 2-.896 2-2v-20.132c0-8.285-6.716-15-15-15z" fill="#0089ef"/><path d="m8.516 112.835v-20.131c0-8.284 6.716-15 15-15h-3c-8.284 0-15 6.716-15 15v20.132c0 1.104.895 2 2 2h3c-1.104-.001-2-.896-2-2.001z" fill="#fff"/><g><g><ellipse cx="34.535" cy="62.989" fill="#fff" rx="18.231" ry="18.154"/><g fill="#3a2c60"><path d="m114.484 86.186c-.552 0-1 .447-1 1v7.624c0 .553.448 1 1 1s1-.447 1-1v-7.624c0-.553-.448-1-1-1z"/><path d="m114.484 8.164h-14.5c-2.757 0-5 2.243-5 5s2.243 5 5 5h1.816l-23.363 21.808-10.788-9.403c-1.88-1.64-4.625-1.656-6.527-.039l-18.017 15.337c-2.584-1.288-5.488-2.032-8.569-2.032-10.604 0-19.232 8.593-19.232 19.154 0 5.375 2.242 10.232 5.834 13.714h-.622c-8.822 0-16 7.178-16 16v20.132c0 1.654 1.346 3 3 3h104.968c1.654 0 3-1.346 3-3v-13.774c0-.553-.448-1-1-1s-1 .447-1 1v13.774c0 .552-.449 1-1 1h-48.114c.112-.314.184-.648.184-1v-20.132c0-8.822-7.178-16-16-16h-.621c3.592-3.482 5.834-8.339 5.834-13.714 0-.405-.036-.801-.061-1.2l10.854-8.997 16.571 13.481c.384.313.941.297 1.307-.038l31.046-28.464v45.039c0 .553.448 1 1 1s1-.447 1-1v-47.312c0-.396-.234-.756-.597-.915-.363-.161-.786-.09-1.079.178l-32.085 29.416-16.538-13.454c-.37-.303-.901-.299-1.269.006l-10.496 8.699c-.472-2.488-1.428-4.804-2.768-6.854l13.672-11.637 10.942 9.538c1.937 1.686 4.816 1.637 6.697-.114l27.521-25.688v2.645c0 2.757 2.243 5 5 5s5-2.243 5-5v-14.154c0-2.757-2.243-5-5-5zm-65.93 70.539c7.72 0 14 6.28 14 14v20.132c0 .552-.449 1-1 1h-54.038c-.551 0-1-.448-1-1v-20.132c0-7.72 6.28-14 14-14h3.054c3.114 2.162 6.89 3.439 10.965 3.439s7.852-1.278 10.965-3.439zm-14.019 1.44c-9.502 0-17.232-7.695-17.232-17.153 0-9.459 7.73-17.154 17.232-17.154 9.501 0 17.231 7.695 17.231 17.154.001 9.458-7.729 17.153-17.231 17.153zm82.949-52.826c0 1.654-1.346 3-3 3s-3-1.346-3-3v-4.947c0-.398-.236-.759-.602-.917-.363-.158-.79-.086-1.081.186l-29.202 27.259c-1.128 1.052-2.856 1.082-4.019.069l-11.591-10.103c-.373-.325-.928-.329-1.305-.008l-14.21 12.096c-1.279-1.572-2.806-2.932-4.516-4.036l17.46-14.863c.556-.474 1.25-.709 1.944-.709.706 0 1.412.244 1.972.732l11.468 9.996c.387.336.965.326 1.339-.022l25.877-24.154c.3-.28.399-.716.248-1.099-.15-.382-.52-.633-.93-.633h-4.353c-1.654 0-3-1.346-3-3s1.346-3 3-3h14.5c1.654 0 3 1.346 3 3v14.153z"/></g></g></g></g></g></svg>