<svg id="icons" enable-background="new 0 0 64 64" height="512" viewBox="0 0 64 64" width="512" xmlns="http://www.w3.org/2000/svg"><g fill="#5d9cec"><path d="m19.495 46.99c0 3.859-3.13 7-6.99 7-3.87 0-7-3.141-7.01-7 .01-3.86 3.14-7 7.01-7 3.86 0 6.99 3.14 6.99 7z"/><path d="m57.495 46.99c0 3.859-3.13 7-7 7-3.86 0-7-3.141-7-7 0-3.86 3.14-7 7-7 3.87 0 7 3.14 7 7z"/><circle cx="31.505" cy="54" r="9"/></g><path d="m17.585 12c2.42-6.43 8.63-11 15.91-11 9.39 0 17 7.61 17 17 4.97 0 9 4.03 9 9s-4.03 9-9 9h-18.99-15c-1.4 0-2.75-.24-4-.69-4.66-1.64-8-6.09-8-11.31 0-6.63 5.37-12 12-12z" fill="#e6e9ed"/><path d="m50.496 19c-.553 0-1-.447-1-1 0-8.822-7.177-16-15.999-16s-15.999 7.178-15.999 16c0 .553-.447 1-1 1s-1-.447-1-1c0-9.925 8.074-18 17.999-18s17.999 8.075 17.999 18c0 .553-.447 1-1 1z"/><path d="m33.497 30c-3.031 0-5.864-1.354-7.774-3.713-.348-.429-.281-1.059.148-1.406s1.06-.28 1.406.148c1.529 1.888 3.795 2.971 6.22 2.971 4.411 0 8-3.589 8-8 0-.553.447-1 1-1s1 .447 1 1c0 5.514-4.486 10-10 10z"/><path d="m50.497 37c-.553 0-1-.447-1-1s.447-1 1-1c4.411 0 7.999-3.59 7.999-8.002 0-4.41-3.588-7.998-7.999-7.998-.553 0-1-.447-1-1s.447-1 1-1c5.514 0 9.999 4.485 9.999 9.998 0 5.515-4.485 10.002-9.999 10.002z"/><path d="m16.504 37c-7.168 0-13-5.832-13-13 0-7.169 5.832-13.002 13-13.002.553 0 1 .447 1 1s-.447 1-1 1c-6.065 0-11 4.936-11 11.002 0 6.065 4.935 11 11 11 .553 0 1 .447 1 1s-.447 1-1 1z"/><path d="m50.497 37h-33.993c-.553 0-1-.447-1-1s.447-1 1-1h33.993c.553 0 1 .447 1 1s-.447 1-1 1z"/><path d="m17.588 12.998h-1.084c-.553 0-1-.447-1-1s.447-1 1-1h1.084c.553 0 1 .447 1 1s-.447 1-1 1z"/><path d="m36.498 55c-.256 0-.512-.098-.707-.293l-1.999-2c-.391-.391-.391-1.023 0-1.414s1.023-.391 1.414 0l1.999 2c.391.391.391 1.023 0 1.414-.195.195-.451.293-.707.293z"/><path d="m34.499 56.996c-.256 0-.512-.098-.707-.293-.391-.391-.391-1.023 0-1.414l1.999-1.998c.391-.391 1.023-.391 1.414 0s.391 1.023 0 1.414l-1.999 1.998c-.195.195-.451.293-.707.293z"/><path d="m26.501 55.002c-.256 0-.512-.098-.707-.293-.391-.39-.391-1.023 0-1.414l2-2.002c.391-.391 1.023-.391 1.414 0 .391.39.391 1.023 0 1.414l-2 2.002c-.195.195-.451.293-.707.293z"/><path d="m28.501 56.998c-.256 0-.512-.098-.707-.293l-2-2c-.391-.391-.391-1.023 0-1.414s1.023-.391 1.414 0l2 2c.391.391.391 1.023 0 1.414-.195.195-.451.293-.707.293z"/><path d="m30.502 59.002c-.08 0-.162-.01-.243-.03-.536-.134-.862-.677-.728-1.212l1.999-8.002c.133-.536.674-.864 1.212-.728.536.134.862.677.728 1.212l-1.999 8.002c-.114.455-.521.758-.969.758z"/><path d="m31.501 64c-5.514 0-10-4.486-10-10s4.486-10 10-10 10 4.486 10 10-4.486 10-10 10zm0-18c-4.411 0-8 3.589-8 8s3.589 8 8 8 8-3.589 8-8-3.589-8-8-8z"/><path d="m54.492 48.002c-.256 0-.512-.098-.707-.293l-.996-.996c-.391-.391-.391-1.023 0-1.414s1.023-.391 1.414 0l.996.996c.391.391.391 1.023 0 1.414-.195.195-.451.293-.707.293z"/><path d="m53.491 49c-.256 0-.512-.098-.707-.293-.391-.391-.391-1.024 0-1.414l1.001-1c.391-.391 1.023-.391 1.414 0s.391 1.024 0 1.414l-1.001 1c-.195.195-.451.293-.707.293z"/><path d="m46.497 48.002c-.256 0-.512-.098-.707-.293-.391-.391-.391-1.024 0-1.414l1.001-1c.391-.391 1.023-.391 1.414 0s.391 1.024 0 1.414l-1.001 1c-.195.195-.451.293-.707.293z"/><path d="m47.498 49c-.256 0-.512-.098-.707-.293l-1.001-1c-.391-.39-.391-1.023 0-1.414s1.023-.391 1.414 0l1.001 1c.391.39.391 1.023 0 1.414-.195.195-.451.293-.707.293z"/><path d="m49.997 49.994c-.08 0-.162-.01-.243-.029-.536-.134-.861-.677-.729-1.213l.998-3.998c.134-.535.675-.86 1.213-.729.536.134.861.677.729 1.213l-.998 3.998c-.114.454-.522.758-.97.758z"/><path d="m50.496 54.992c-4.41 0-8-3.589-8.001-8 .001-4.411 3.591-8 8.001-8 4.411 0 7.999 3.589 7.999 8s-3.588 8-7.999 8zm0-14c-3.309 0-6 2.691-6.001 6 .001 3.309 2.692 6 6.001 6 3.308 0 5.999-2.691 5.999-6s-2.691-6-5.999-6z"/><path d="m31.501 46c-.553 0-1-.447-1-1v-9c0-.553.447-1 1-1s1 .447 1 1v9c0 .553-.447 1-1 1z"/><path d="m50.496 40.992c-.553 0-1-.447-1-1v-3.992c0-.553.447-1 1-1s1 .447 1 1v3.992c0 .553-.447 1-1 1z"/><path d="m16.496 48.002c-.256 0-.512-.098-.707-.293l-.996-.996c-.391-.391-.391-1.023 0-1.414s1.023-.391 1.414 0l.996.996c.391.391.391 1.023 0 1.414-.195.195-.451.293-.707.293z"/><path d="m15.495 49c-.256 0-.512-.098-.707-.293-.391-.391-.391-1.024 0-1.414l1.001-1c.391-.391 1.023-.391 1.414 0s.391 1.024 0 1.414l-1.001 1c-.195.195-.451.293-.707.293z"/><path d="m8.501 48.002c-.256 0-.512-.098-.707-.293-.391-.391-.391-1.024 0-1.414l1.001-1c.391-.391 1.023-.391 1.414 0s.391 1.024 0 1.414l-1.001 1c-.195.195-.451.293-.707.293z"/><path d="m9.502 49c-.256 0-.512-.098-.707-.293l-1.001-1c-.391-.39-.391-1.023 0-1.414s1.023-.391 1.414 0l1.001 1c.391.39.391 1.023 0 1.414-.195.195-.451.293-.707.293z"/><path d="m12.001 49.994c-.08 0-.162-.01-.243-.029-.536-.134-.861-.677-.729-1.213l.998-3.998c.134-.535.678-.86 1.213-.729.536.134.861.677.729 1.213l-.998 3.998c-.115.454-.522.758-.97.758z"/><path d="m12.5 54.992c-4.41 0-8-3.589-8.001-8 .001-4.411 3.591-8 8.001-8 4.411 0 7.999 3.589 7.999 8s-3.588 8-7.999 8zm0-14c-3.309 0-6 2.691-6.001 6 .001 3.309 2.692 6 6.001 6 3.308 0 5.999-2.691 5.999-6s-2.691-6-5.999-6z"/><path d="m12.5 40.992c-.553 0-1-.447-1-1v-4.676c0-.553.447-1 1-1s1 .447 1 1v4.676c0 .553-.447 1-1 1z"/><path d="m44.001 23.002c-.304 0-.604-.138-.801-.399l-1.503-2.002c-.331-.441-.242-1.068.199-1.4.441-.33 1.069-.242 1.4.199l1.503 2.002c.331.441.242 1.068-.199 1.4-.179.135-.39.2-.599.2z"/><path d="m40.501 22.5c-.304 0-.604-.138-.801-.399-.331-.441-.242-1.068.199-1.4l1.997-1.5c.441-.33 1.069-.242 1.4.199s.242 1.068-.199 1.4l-1.997 1.5c-.179.135-.39.2-.599.2z"/><path d="m24.499 21.004c-.553 0-1-.447-1-1 0-5.514 4.486-10 10-10 3.031 0 5.864 1.354 7.774 3.713.348.429.281 1.059-.148 1.406-.43.347-1.06.28-1.406-.148-1.528-1.888-3.795-2.971-6.22-2.971-4.411 0-8 3.589-8 8 0 .553-.447 1-1 1z"/><path d="m24.5 21.004c-.305 0-.605-.139-.802-.4l-1.499-2.002c-.331-.442-.24-1.069.201-1.4.442-.332 1.07-.239 1.4.201l1.499 2.002c.331.442.24 1.069-.201 1.4-.179.134-.39.199-.598.199z"/><path d="m24.5 21.004c-.304 0-.604-.138-.8-.398-.332-.441-.244-1.068.197-1.4l1.997-1.504c.444-.332 1.069-.242 1.4.197.332.441.244 1.068-.197 1.4l-1.997 1.504c-.179.135-.391.201-.6.201z"/></svg>